# AST/ASF file generated using VICON BodyLanguage
# -----------------------------------------------
:version 1.10
:name VICON
:units
  mass 1.0
  length 0.45
  angle deg
:documentation
   .ast/.asf automatically generated from VICON data using
   VICON BodyBuilder and BodyLanguage model FoxedUp or BRILLIANT.MOD
:root
   order TX TY TZ RX RY RZ
   axis XYZ
   position 0 0 0  
   orientation 0 0 0 
:bonedata
  begin
     id 1 
     name lhipjoint
     direction 0.627412 -0.730575 0.26947 
     length 2.49821 
     axis 0 0 0  XYZ
  end
  begin
     id 2 
     name lfemur
     direction 0.34202 -0.939693 0  
     length 6.89165  
     axis 0 0 20  XYZ
    dof rx ry rz
    limits (-160.0 20.0)
           (-70.0 70.0)
           (-60.0 70.0)
  end
  begin
     id 3 
     name ltibia
     direction 0.34202 -0.939693 0   
     length 7.91287   
     axis 0 0 20   XYZ
    dof rx
    limits (-10.0 170.0)
  end
  begin
     id 4 
     name lfoot
     direction 0.0941675 -0.258723 0.96135   
     length 2.16919   
     axis -90 7.62852e-016 20   XYZ
    dof rx rz
    limits (-45.0 90.0)
           (-70.0 20.0)
  end
  begin
     id 5 
     name ltoes
     direction 1.5347e-011 -4.21941e-011 1   
     length 1.08535   
     axis -90 7.62852e-016 20   XYZ
    dof rx
    limits (-90.0 20.0)
  end
  begin
     id 6 
     name rhipjoint
     direction -0.614241 -0.740361 0.27308   
     length 2.46519  
     axis 0 0 0  XYZ 
  end
  begin
     id 7 
     name rfemur
     direction -0.34202 -0.939693 0   
     length 7.27512   
     axis 0 0 -20   XYZ
    dof rx ry rz
    limits (-160.0 20.0)
           (-70.0 70.0)
           (-70.0 60.0)
  end
  begin
     id 8 
     name rtibia
     direction -0.34202 -0.939693 0   
     length 7.89523   
     axis 0 0 -20   XYZ
    dof rx
    limits (-10.0 170.0)
 end
 begin
     id 9 
     name rfoot
     direction -0.0860444 -0.236405 0.967837   
     length 2.29534  
     axis -90 -7.62852e-016 -20   XYZ
    dof rx rz
    limits (-45.0 90.0)
           (-20.0 70.0)
  end
  begin
     id 10 
     name rtoes
     direction -1.53608e-011 -4.21861e-011 1   
     length 1.14915   
     axis -90 -7.62852e-016 -20   XYZ
    dof rx
    limits (-90.0 20.0)
  end
  begin
     id 11 
     name lowerback
     direction -0.00734074 0.997215 -0.0742143   
     length 2.13469   
     axis 0 0 0   XYZ
    dof rx ry rz
    limits (-20.0 45.0)
           (-30.0 30.0)
           (-30.0 30.0)
  end
  begin
     id 12 
     name upperback
     direction 0.0285728 0.99958 -0.00488656   
     length 2.13416   
     axis 0 0 0   XYZ
    dof rx ry rz
    limits (-20.0 45.0)
           (-30.0 30.0)
           (-30.0 30.0)
  end
  begin
     id 13 
     name thorax
     direction 0.0316844 0.999056 0.0297249   
     length 2.14463   
     axis 0 0 0   XYZ
    dof rx ry rz
    limits (-20.0 45.0)
           (-30.0 30.0)
           (-30.0 30.0)
  end
  begin
     id 14 
     name lowerneck
     direction -0.0281545 0.996802 0.0747864   
     length 1.79004   
     axis 0 0 0   XYZ
    dof rx ry rz
    limits (-20.0 45.0)
           (-30.0 30.0)
           (-30.0 30.0)
  end
  begin
     id 15 
     name upperneck
     direction -0.00100185 0.982732 -0.185031   
     length 1.79988   
     axis 0 0 0   XYZ
    dof rx ry rz
    limits (-20.0 45.0)
           (-30.0 30.0)
           (-30.0 30.0)
  end
  begin
     id 16
     name head
     direction 0.00403747 0.997539 -0.0700022  
     length 1.81696  
     axis 0 0 0   XYZ
    dof rx ry rz
    limits (-20.0 45.0)
           (-30.0 30.0)
           (-30.0 30.0)
  end
  begin
     id 17 
     name lclavicle
     direction 0.959882 0.242905 -0.140082  
     length 3.87755  
     axis 0 0 0   XYZ
    dof ry rz
    limits (-20.0 10.0)
           (0.0 20.0)
  end
  begin
     id 18 
     name lhumerus
     direction 1 -4.4895e-011 3.76166e-027   
     length 5.14601   
     axis 180 -30 -90   XYZ
    dof rx ry rz
    limits (-60.0 90.0)
           (-90.0 90.0)
           (-90.0 90.0)
  end
  begin
     id 19
     name lradius
     direction 1 -4.48966e-011 -3.24039e-027   
     length 3.64452   
     axis 180 -30 -90   XYZ
    dof rx
    limits (-10.0 170.0)
  end
  begin
     id 20
     name lwrist
     direction 1 -4.48999e-011 2.57119e-027   
     length 1.82226   
     axis -1.61769e-015 90 90   XYZ
    dof ry
    limits (-180.0 0.0)
 end
  begin
     id 21 
     name lhand
     direction 1 -4.48961e-011 5.13984e-027   
     length 0.56228   
     axis -3.27988e-015 90 90   XYZ
    dof rx rz
    limits (-90.0 90.0)
           (-45.0 45.0)
  end
  begin
     id 22 
     name lfingers
     direction 1 -4.48991e-011 1.02836e-026   
     length 0.453325   
     axis -6.5598e-015 90 90   XYZ
    dof rx
    limits (0.0 90.0)
  end
  begin
     id 23
     name lthumb
     direction 0.707107 -6.34956e-011 0.707107   
     length 0.650886   
     axis -90 45 2.19363e-014   XYZ
    dof rx rz
    limits (-45.0 45.0)
           (-45.0 45.0)
  end
  begin
     id 24 
     name rclavicle
     direction -0.929201 0.345171 -0.132073   
     length 3.55416  
     axis 0 0 0   XYZ 
    dof ry rz
    limits (-10.0 20.0)
           (-20.0 0.0)
  end
  begin
     id 25 
     name rhumerus
     direction -1 -4.48979e-011 4.53734e-027  
     length 5.33913   
     axis 180 30 90   XYZ
    dof rx ry rz
    limits (-90.0 60.0)
           (-90.0 90.0)
           (-90.0 90.0)
  end
  begin
     id 26 
     name rradius
     direction -1 -4.4896e-011 -2.24007e-027   
     length 3.56478   
     axis 180 30 90   XYZ
    dof rx
    limits (-10.0 170.0)
  end
  begin
     id 27 
     name rwrist
     direction -1 -4.48923e-011 2.56866e-027   
     length 1.78239   
     axis -1.61769e-015 -90 -90   XYZ
    dof ry
    limits (-180.0 0.0)
  end
  begin
     id 28
     name rhand
     direction -1 -4.48914e-011 5.13667e-027   
     length 0.857474   
     axis -3.27988e-015 -90 -90   XYZ
    dof rx rz
    limits (-90.0 90.0)
           (-45.0 45.0)
  end
  begin
     id 29
     name rfingers
     direction -1 -4.49112e-011 1.02998e-026   
     length 0.691318   
     axis -6.5598e-015 -90 -90   XYZ
    dof rx
    limits (0.0 90.0)
  end
  begin
     id 30
     name rthumb
     direction -0.707107 -6.34979e-011 0.707107   
     length 0.992598   
     axis -90 -45 -2.19363e-014   XYZ
    dof rx rz
    limits (-45.0 45.0)
           (-45.0 45.0)
  end
:hierarchy
  begin
    root lhipjoint rhipjoint lowerback
    lhipjoint lfemur
    lfemur ltibia
    ltibia lfoot
    lfoot ltoes
    rhipjoint rfemur
    rfemur rtibia
    rtibia rfoot
    rfoot rtoes
    lowerback upperback
    upperback thorax
    thorax lowerneck lclavicle rclavicle
    lowerneck upperneck
    upperneck head
    lclavicle lhumerus
    lhumerus lradius
    lradius lwrist
    lwrist lhand lthumb
    lhand lfingers
    rclavicle rhumerus
    rhumerus rradius
    rradius rwrist
    rwrist rhand rthumb
    rhand rfingers
  end

#!OML:ASF F:\VICON\USERDATA\INSTALL\Justin4\Justin4.ASF
:FULLY-SPECIFIED
:DEGREES
2001
root -4.47032 12.6878 10.5033 4.20888 -36.598 2.35067
lowerback 34.9117 2.95777 -0.0871532
upperback 9.02884 2.80743 -4.16265
thorax -7.50384 1.22875 -5.36134
lowerneck -10.4737 6.00454 -8.67365
upperneck -0.999457 9.29716 -11.9344
head 1.66362 4.33802 -1.94122
rclavicle -2.20651e-014 4.21423e-014
rhumerus -6.89743 -1.49687 -74.4328
rradius 129.377
rwrist -12.0817
rhand -10.9037 20.8711
rfingers 7.12502
rthumb 15.1132 -368.557
lclavicle -2.20651e-014 4.21423e-014
lhumerus 9.58354 15.9289 82.3416
lradius 137.346
lwrist 14.7374
lhand -10.4647 7.79809
lfingers 7.12502
lthumb 15.5361 37.194
rfemur -40.3115 -14.0967 -2.01624
rtibia 107.619
rfoot -32.3012 8.87973
rtoes -26.4017
lfemur -69.9884 15.8151 -3.25706
ltibia 85.2338
lfoot -12.0705 -17.6472
ltoes -28.5907
2002
root -4.4334 12.6756 10.548 4.61717 -36.2794 1.95888
lowerback 34.7486 2.89342 -0.187117
upperback 8.9523 2.74232 -3.81531
thorax -7.54692 1.19355 -4.91175
lowerneck -10.9215 6.05908 -8.34422
upperneck -1.2094 9.35041 -11.2919
head 1.65053 4.38399 -1.77065
rclavicle -9.34288e-015 -4.57205e-015
rhumerus -6.90453 -1.64459 -74.039
rradius 130.109
rwrist -11.4017
rhand -10.5244 20.7503
rfingers 7.12502
rthumb 15.4786 -368.65
lclavicle -9.34288e-015 -4.57205e-015
lhumerus 10.0124 15.7812 82.6968
lradius 137.442
lwrist 14.844
lhand -10.4981 7.52098
lfingers 7.12502
lthumb 15.5039 36.9194
rfemur -40.2711 -14.311 -2.09323
rtibia 107.438
rfoot -32.1152 9.55084
rtoes -26.9916
lfemur -70.4694 15.5218 -3.10196
ltibia 85.4162
lfoot -11.7245 -17.8718
ltoes -26.5801
2003
root -4.40982 12.7047 10.629 4.39325 -36.6078 1.84775
lowerback 34.7679 3.13528 -0.570678
upperback 8.94555 2.93431 -3.57209
thorax -7.56775 1.27823 -4.51944
lowerneck -11.2023 6.16648 -7.92394
upperneck -1.36409 9.44944 -10.7463
head 1.63841 4.45146 -1.64953
rclavicle 1.59028e-015 9.54166e-015
rhumerus -7.00148 -1.82136 -73.5911
rradius 130.778
rwrist -10.8083
rhand -10.1984 20.8294
rfingers 7.12502
rthumb 15.7926 -368.546
lclavicle 1.59028e-015 9.54166e-015
lhumerus 10.3202 15.5693 82.9518
lradius 137.606
lwrist 14.929
lhand -10.5165 7.01944
lfingers 7.12502
lthumb 15.4862 36.4192
rfemur -39.6027 -13.7488 -2.42418
rtibia 106.816
rfoot -31.9935 9.63684
rtoes -27.9778
lfemur -70.051 15.6137 -3.16331
ltibia 85.8203
lfoot -12.4997 -17.7625
ltoes -28.1845
2004
root -4.38269 12.7349 10.7128 4.35745 -36.6836 1.80609
lowerback 34.4426 3.23322 -0.633997
upperback 8.89709 3.06877 -3.40181
thorax -7.50131 1.3418 -4.3437
lowerneck -11.1363 6.20316 -7.64189
upperneck -1.57743 9.41752 -10.0636
head 1.52854 4.47221 -1.48233
rclavicle 2.68359e-014 -1.45113e-014
rhumerus -7.43628 -2.12493 -73.0175
rradius 131.525
rwrist -10.4339
rhand -9.84035 20.8375
rfingers 7.12502
rthumb 16.1374 -368.511
lclavicle 2.68359e-014 -1.45113e-014
lhumerus 10.5847 15.1546 83.1126
lradius 137.722
lwrist 14.942
lhand -10.6049 6.72556
lfingers 7.12502
lthumb 15.4011 36.1319
rfemur -39.0962 -13.5977 -2.75795
rtibia 106.179
rfoot -31.7828 9.86683
rtoes -28.0901
lfemur -70.0115 15.5572 -3.41024
ltibia 86.381
lfoot -13.5001 -17.4979
ltoes -31.3014
2005
root -4.35554 12.7604 10.7925 4.48338 -36.6647 1.56876
lowerback 34.1571 3.26608 -0.552805
upperback 8.73178 3.18187 -3.14338
thorax -7.57713 1.39266 -4.14974
lowerneck -10.6544 6.21715 -7.49576
upperneck -2.06213 9.29752 -9.33828
head 1.24831 4.47762 -1.30556
rclavicle 5.37713e-014 -9.24349e-015
rhumerus -7.91513 -2.40477 -72.3237
rradius 132.219
rwrist -10.0176
rhand -9.47201 20.8864
rfingers 7.12502
rthumb 16.492 -368.433
lclavicle 5.37713e-014 -9.24349e-015
lhumerus 10.8675 15.0237 83.1497
lradius 137.636
lwrist 15.0673
lhand -10.4195 7.4217
lfingers 7.12502
lthumb 15.5796 36.8142
rfemur -38.5943 -13.637 -2.88365
rtibia 105.564
rfoot -31.6299 10.0607
rtoes -27.5081
lfemur -70.0654 16.0241 -3.86189
ltibia 87.6735
lfoot -18.2925 -14.7726
ltoes -43.0898
2006
root -4.3298 12.8046 10.8589 4.70058 -36.4327 1.09961
lowerback 34.1052 3.15002 -0.303077
upperback 8.49883 3.16249 -2.85419
thorax -7.81645 1.37746 -3.97703
lowerneck -10.1313 6.28476 -7.29565
upperneck -2.62873 9.24262 -8.64117
head 0.944565 4.51509 -1.15015
rclavicle 1.67973e-014 6.95746e-015
rhumerus -8.30194 -2.63563 -71.7318
rradius 132.871
rwrist -9.80695
rhand -9.16816 20.9748
rfingers 7.12502
rthumb 16.7846 -368.32
lclavicle 1.67973e-014 6.95746e-015
lhumerus 11.0402 15.1295 83.0076
lradius 137.594
lwrist 15.2276
lhand -10.017 8.05499
lfingers 7.12502
lthumb 15.9673 37.4169
rfemur -37.8668 -13.7998 -2.65798
rtibia 104.816
rfoot -31.5695 9.95414
rtoes -26.9614
lfemur -69.7085 15.8078 -3.66058
ltibia 87.4875
lfoot -18.2508 -15.0182
ltoes -42.1808
2007
root -4.30298 12.8592 10.9122 5.14583 -35.8099 0.801292
lowerback 33.7026 2.8866 0.0242117
upperback 8.27998 3.00015 -2.57682
thorax -7.91385 1.30063 -3.79388
lowerneck -10.0577 6.31849 -7.24168
upperneck -2.80293 9.25134 -7.86865
head 0.835743 4.54757 -0.925743
rclavicle -7.41467e-014 2.38542e-014
rhumerus -8.64814 -2.82296 -71.09
rradius 133.538
rwrist -9.97357
rhand -9.28693 21.0834
rfingers 7.12502
rthumb 16.6702 -368.221
lclavicle -7.41467e-014 2.38542e-014
lhumerus 11.0362 14.9685 82.9475
lradius 137.76
lwrist 15.1729
lhand -10.0611 7.72858
lfingers 7.12502
lthumb 15.9248 37.0939
rfemur -37.3791 -14.4625 -2.36787
rtibia 104.062
rfoot -31.4969 9.29629
rtoes -27.168
lfemur -69.6749 14.9807 -3.47511
ltibia 86.4235
lfoot -14.8334 -17.2185
ltoes -32.2458
2008
root -4.28722 12.9524 11.0251 5.01314 -36.3725 0.790183
lowerback 32.974 3.04539 0.0763613
upperback 8.39411 3.23947 -2.50652
thorax -7.49908 1.4209 -3.80108
lowerneck -10.5201 6.37201 -7.13298
upperneck -2.56085 9.37333 -7.15637
head 0.958488 4.59921 -0.697008
rclavicle 8.89561e-015 5.86415e-015
rhumerus -8.9372 -2.82171 -70.4222
rradius 134.124
rwrist -10.1566
rhand -10.0814 21.7145
rfingers 7.12502
rthumb 15.9053 -367.652
lclavicle 8.89561e-015 5.86415e-015
lhumerus 11.1197 14.8155 82.7957
lradius 137.931
lwrist 15.0551
lhand -10.3231 7.46596
lfingers 7.12502
lthumb 15.6725 36.8512
rfemur -36.6428 -13.8901 -2.46692
rtibia 102.87
rfoot -31.2201 8.49422
rtoes -27.7205
lfemur -68.587 15.0647 -3.73328
ltibia 85.5529
lfoot -13.5924 -17.6997
ltoes -24.9494
2009
root -4.26564 13.0334 11.0976 5.32645 -36.3012 0.752034
lowerback 32.0105 2.97451 0.138841
upperback 8.59181 3.21645 -2.19206
thorax -7.56186 1.3927 -3.72993
lowerneck -10.9907 6.4987 -6.83245
upperneck -2.17264 9.57899 -6.60547
head 1.14939 4.68266 -0.539394
rclavicle -2.8302e-014 -5.76476e-015
rhumerus -6.23638 -3.82323 -71.1026
rradius 133.548
rwrist -10.0048
rhand -8.35576 21.0592
rfingers 7.12502
rthumb 17.5665 -368.167
lclavicle -2.8302e-014 -5.76476e-015
lhumerus 11.1448 14.8695 82.3877
lradius 137.919
lwrist 14.997
lhand -10.3398 7.88944
lfingers 7.12502
lthumb 15.6564 37.276
rfemur -36.2801 -13.9971 -2.38367
rtibia 101.807
rfoot -30.5702 8.26425
rtoes -26.9239
lfemur -68.394 15.0299 -4.28766
ltibia 84.8973
lfoot -14.0579 -17.184
ltoes -25.0953
2010
root -4.24862 13.1302 11.2007 5.42133 -36.6759 0.454531
lowerback 31.5688 3.01842 0.411775
upperback 8.44432 3.38674 -2.03711
thorax -7.51051 1.47455 -3.75581
lowerneck -11.195 6.57532 -6.51057
upperneck -1.99794 9.66649 -6.0816
head 1.22876 4.72512 -0.412646
rclavicle 1.08897e-014 -1.01007e-014
rhumerus -9.29063 -2.92499 -69.1046
rradius 134.869
rwrist -10.1444
rhand -10.2991 22.1952
rfingers 7.12502
rthumb 15.6956 -367.188
lclavicle 1.08897e-014 -1.01007e-014
lhumerus 11.1787 14.9275 81.8629
lradius 137.786
lwrist 14.9801
lhand -10.3368 8.31925
lfingers 7.12502
lthumb 15.6593 37.7055
rfemur -35.3924 -13.2869 -2.21838
rtibia 100.437
rfoot -29.875 8.40959
rtoes -25.2818
lfemur -67.2681 15.2222 -4.46297
ltibia 84.3345
lfoot -14.0682 -16.7552
ltoes -23.2491
2011
root -4.23049 13.2337 11.2956 5.50923 -37.1167 0.20524
lowerback 31.2297 3.1306 0.537103
upperback 8.23829 3.59865 -1.84883
thorax -7.58072 1.57367 -3.68157
lowerneck -11.2711 6.62347 -6.16579
upperneck -1.87759 9.69651 -5.67711
head 1.27656 4.74167 -0.334736
rclavicle 6.40832e-014 -2.52457e-014
rhumerus -9.25808 -3.03744 -68.592
rradius 135.099
rwrist -10.2074
rhand -9.95868 21.9676
rfingers 7.12502
rthumb 16.0234 -367.39
lclavicle 6.40832e-014 -2.52457e-014
lhumerus 10.8549 14.9893 81.4389
lradius 137.824
lwrist 14.9523
lhand -10.4046 8.29698
lfingers 7.12502
lthumb 15.594 37.6884
rfemur -34.6322 -12.4003 -1.99979
rtibia 99.0521
rfoot -29.4167 8.17775
rtoes -24.6801
lfemur -66.1323 15.4151 -4.62534
ltibia 83.748
lfoot -11.8389 -16.9074
ltoes -12.1449
2012
root -4.21447 13.353 11.3953 5.58822 -37.4819 0.0661868
lowerback 30.8365 3.22938 0.603246
upperback 7.98403 3.78334 -1.62672
thorax -7.688 1.66066 -3.52404
lowerneck -11.4645 6.67782 -5.78705
upperneck -1.59488 9.7507 -5.38425
head 1.40593 4.75843 -0.286322
rclavicle 6.31141e-014 -4.90004e-014
rhumerus -9.31914 -3.04043 -67.9667
rradius 135.266
rwrist -9.74306
rhand -9.85925 21.7962
rfingers 7.12502
rthumb 16.1192 -367.553
lclavicle 6.31141e-014 -4.90004e-014
lhumerus 9.97952 15.0504 81.106
lradius 137.998
lwrist 14.758
lhand -10.4164 7.75057
lfingers 7.12502
lthumb 15.5826 37.1428
rfemur -33.8404 -11.6226 -1.8163
rtibia 97.5104
rfoot -29.0668 7.3883
rtoes -25.2801
lfemur -65.0717 15.4889 -4.90195
ltibia 83.1141
lfoot -15.7944 -15.6621
ltoes -23.4287
2013
root -4.199 13.4713 11.477 6.05949 -37.1766 -0.241409
lowerback 30.1885 3.06394 0.980773
upperback 7.70766 3.74825 -1.29892
thorax -7.69865 1.64725 -3.33525
lowerneck -11.8894 6.6738 -5.53397
upperneck -1.2493 9.75866 -5.04002
head 1.58807 4.74863 -0.193112
rclavicle -3.60794e-014 4.12478e-014
rhumerus -9.2743 -3.07811 -67.263
rradius 135.338
rwrist -9.23791
rhand -9.83991 21.8293
rfingers 7.12502
rthumb 16.1378 -367.519
lclavicle -3.60794e-014 4.12478e-014
lhumerus 8.99118 15.045 80.8343
lradius 138.142
lwrist 14.5238
lhand -10.2762 7.09408
lfingers 7.12502
lthumb 15.7176 36.4758
rfemur -33.0859 -11.4532 -1.31304
rtibia 95.9525
rfoot -28.5626 6.48587
rtoes -25.9499
lfemur -64.6253 15.1233 -5.01897
ltibia 82.4397
lfoot -15.9255 -15.3563
ltoes -25.3045
2014
root -4.18425 13.5925 11.5629 6.30337 -36.9535 -0.498067
lowerback 29.6693 2.94541 1.39249
upperback 7.54662 3.76432 -1.01317
thorax -7.62715 1.65749 -3.23476
lowerneck -12.3947 6.64939 -5.31702
upperneck -0.973364 9.73866 -4.64535
head 1.75824 4.73022 -0.0779343
rclavicle 0 -1.64991e-014
rhumerus -9.22608 -3.19742 -66.6
rradius 135.413
rwrist -8.58027
rhand -10.1199 22.0434
rfingers 7.12502
rthumb 15.8681 -367.326
lclavicle 0 -1.64991e-014
lhumerus 8.33575 14.9151 80.582
lradius 138.243
lwrist 14.4164
lhand -10.028 7.07265
lfingers 7.12502
lthumb 15.9567 36.4354
rfemur -32.092 -10.9827 -0.929377
rtibia 94.3001
rfoot -27.9747 6.10724
rtoes -25.7774
lfemur -63.9731 14.8485 -5.10847
ltibia 81.8095
lfoot -15.4569 -15.3261
ltoes -25.1302
2015
root -4.17158 13.719 11.6593 6.37362 -36.9052 -0.486038
lowerback 29.0912 2.9239 1.54916
upperback 7.34674 3.82222 -0.764834
thorax -7.58104 1.68954 -3.04331
lowerneck -12.7526 6.65014 -5.0119
upperneck -0.663238 9.72804 -4.32197
head 1.9236 4.71696 -0.00310264
rclavicle 4.07509e-014 -6.12257e-014
rhumerus -9.45289 -3.14086 -65.9478
rradius 135.535
rwrist -7.61597
rhand -10.7445 22.3671
rfingers 7.12502
rthumb 15.2666 -367.05
lclavicle 4.07509e-014 -6.12257e-014
lhumerus 7.67722 14.7261 80.2855
lradius 138.444
lwrist 14.3036
lhand -9.94816 7.62056
lfingers 7.12502
lthumb 16.0336 36.9771
rfemur -31.0858 -10.3779 -0.884232
rtibia 92.5685
rfoot -27.4008 6.11693
rtoes -25.3815
lfemur -63.3034 14.7761 -5.49631
ltibia 81.232
lfoot -15.5211 -15.0417
ltoes -27.5872
